<svg xmlns="http://www.w3.org/2000/svg" version="1.1" xmlns:xlink="http://www.w3.org/1999/xlink" xmlns:svgjs="http://svgjs.dev/svgjs" width="1500" height="1500" viewBox="0 0 1500 1500"><g transform="matrix(1,0,0,1,0,0.00011899839228135534)"><svg viewBox="0 0 280 280" data-background-color="#008000" preserveAspectRatio="xMidYMid meet" height="1500" width="1500" xmlns="http://www.w3.org/2000/svg" xmlns:xlink="http://www.w3.org/1999/xlink"><g id="tight-bounds" transform="matrix(1,0,0,1,0,-0.000022213033219031786)"><svg viewBox="0 0 280 280" height="280" width="280"><g><svg viewBox="0 0 280 280" height="280" width="280"><g><svg viewBox="0 0 280 280" height="280" width="280"><g id="textblocktransform"><svg viewBox="0 0 280 280" height="280" width="280" id="textblock"><g><svg viewBox="0 0 280 280" height="280" width="280"><g transform="matrix(1,0,0,1,74.02886892676011,74.00336708925556)"><svg viewBox="0 0 131.94226214647978 131.99326582148888" height="131.99326582148888" width="131.94226214647978"><g id="icon-0"><svg xmlns="http://www.w3.org/2000/svg" xmlns:xlink="http://www.w3.org/1999/xlink" version="1.1" x="0" y="0" viewBox="5.166114591025887 5.333 89.83427361270391 89.869" enable-background="new 0 0 100 100" xml:space="preserve" height="131.99326582148888" width="131.94226214647978" class="icon-xg-0" data-fill-palette-color="accent" id="xg-0"><path d="M93.845 7.137C92.895 5.994 91.486 5.333 90 5.333H70.167 30 10.167c-1.486 0-2.895 0.661-3.845 1.804-0.95 1.143-1.343 2.648-1.072 4.109l14.834 79.869c0.44 2.369 2.507 4.087 4.916 4.087h50.166c2.409 0 4.477-1.718 4.916-4.087l14.834-79.869C95.188 9.785 94.795 8.28 93.845 7.137zM50 86.333c-5.514 0-10-4.486-10-10s4.486-10 10-10c5.514 0 10 4.486 10 10S55.514 86.333 50 86.333zM64.302 48.916L53.811 59.407c-0.037 0.04-0.063 0.088-0.104 0.128-0.152 0.152-0.323 0.271-0.489 0.398-0.09 0.07-0.169 0.153-0.264 0.217-0.181 0.119-0.372 0.209-0.562 0.305-0.103 0.051-0.197 0.113-0.303 0.158-0.205 0.086-0.418 0.139-0.632 0.195-0.103 0.029-0.201 0.07-0.306 0.092-0.324 0.064-0.654 0.1-0.984 0.1-0.001 0-0.002 0-0.003 0-0.04 0-0.076-0.011-0.115-0.012-0.286-0.008-0.572-0.03-0.854-0.086-0.199-0.039-0.387-0.109-0.576-0.172-0.118-0.037-0.237-0.061-0.351-0.107-0.251-0.104-0.486-0.235-0.713-0.376-0.047-0.028-0.097-0.048-0.143-0.077-0.295-0.195-0.568-0.422-0.816-0.675L36.03 48.928c-1.951-1.951-1.953-5.117 0-7.07 1.953-1.952 5.119-1.952 7.072 0.002l2.064 2.063V17.166c0-2.762 2.238-5 5-5 2.762 0 5 2.238 5 5v26.746l2.066-2.066c1.951-1.953 5.117-1.953 7.069 0C66.255 43.799 66.255 46.965 64.302 48.916z" fill="#ffffff" data-fill-palette-color="accent"></path></svg></g></svg></g><g id="text-0"><path d="M32.506 91.935l-8.021-0.809 6.093 5.475-3.042 7.363-14.275-1.272-0.911 2.206-5.129-2.119 4.861-11.766 5.129 2.119-0.655 1.584 6.795 0.997-9.84-8.16 1.827-4.421 12.967 1.151-5.669-4.284-0.814 1.97-5.129-2.118 3.778-9.145 5.129 2.119-0.927 2.243 11.089 8.985z" fill="#ffffff" data-fill-palette-color="primary"></path><path d="M51.08 62.326v0c-0.83 0.899-1.76 1.55-2.788 1.952v0c-1.018 0.421-2.057 0.549-3.117 0.384-1.055-0.16-2.013-0.637-2.872-1.43v0c-0.934-0.863-1.489-1.851-1.664-2.966v0c-0.155-1.105-0.002-2.223 0.459-3.353 0.46-1.13 1.142-2.185 2.046-3.164v0c1.061-1.149 2.253-2.099 3.575-2.849v0l-0.592-0.547c-0.705-0.65-1.516-0.849-2.435-0.596-0.914 0.248-1.839 0.879-2.776 1.894v0c-0.397 0.43-0.789 0.96-1.178 1.592-0.388 0.641-0.725 1.302-1.011 1.982-0.291 0.676-0.496 1.31-0.617 1.901v0l-0.51 0.237-3.837-3.543c0.603-1.415 1.336-2.751 2.2-4.007 0.859-1.261 1.732-2.372 2.618-3.331v0c4.936-5.346 8.908-6.631 11.915-3.854v0l5.921 5.466 1.142-1.236 3.972 3.667-6.234 6.753-2.713-1.408c0.389 1.062 0.429 2.192 0.121 3.388-0.303 1.201-0.845 2.223-1.625 3.068zM49.991 56.724v0c0.268-0.29 0.495-0.631 0.681-1.023 0.177-0.392 0.266-0.694 0.267-0.906v0l-2.211-2.041c-0.14 0.111-0.386 0.273-0.739 0.484v0c-0.357 0.226-0.637 0.449-0.839 0.669v0c-0.429 0.465-0.628 0.971-0.597 1.518 0.036 0.542 0.296 1.037 0.781 1.485v0c0.36 0.332 0.792 0.491 1.297 0.475 0.51-0.011 0.963-0.231 1.36-0.661z" fill="#ffffff" data-fill-palette-color="primary"></path><path d="M82.115 36.968v0c-2.116 1.244-4.317 1.789-6.601 1.633v0l0.307 1.689-2.876 1.691-3.593-6.111 3.447-2.027c0.597 0.706 1.375 1.191 2.335 1.455 0.963 0.27 1.838 0.174 2.623-0.288v0c0.299-0.176 0.512-0.411 0.638-0.707 0.123-0.301 0.072-0.642-0.152-1.023v0c-0.224-0.381-0.644-0.599-1.261-0.655v0c-0.632-0.055-1.507-0.033-2.625 0.065v0c-1.374 0.106-2.522 0.138-3.445 0.097v0c-0.935-0.034-1.86-0.259-2.776-0.676-0.906-0.414-1.65-1.116-2.233-2.106v0c-0.6-1.02-0.788-2.105-0.564-3.254v0c0.236-1.141 0.788-2.222 1.654-3.245 0.872-1.026 1.953-1.918 3.243-2.676v0c1.682-0.989 3.507-1.462 5.472-1.419v0l-0.208-1.239 2.568-1.509 2.906 4.941-2.99 1.758c-0.654-0.522-1.334-0.833-2.038-0.931-0.711-0.095-1.391 0.049-2.042 0.431v0c-0.762 0.448-1 0.915-0.714 1.402v0c0.205 0.321 0.572 0.484 1.103 0.488v0c0.521 0.001 1.337-0.06 2.447-0.185v0c0.68-0.092 1.314-0.161 1.902-0.207 0.586-0.037 1.121-0.059 1.605-0.068v0c0.973 0.004 1.951 0.233 2.936 0.687 0.991 0.451 1.822 1.248 2.495 2.391v0c0.717 1.219 1.005 2.427 0.863 3.622v0c-0.144 1.205-0.612 2.32-1.404 3.347-0.795 1.036-1.803 1.912-3.022 2.629z" fill="#ffffff" data-fill-palette-color="primary"></path><path d="M111.748 25.132v0c-4.443 1.207-7.294-0.506-8.552-5.139v0l-1.859-6.841-2.776 0.754-1.38-5.08 2.776-0.754-1.078-3.967 7.795-4.105 1.581 5.818 3.327-0.904 1.38 5.079-3.327 0.904 1.693 6.231c0.143 0.525 0.457 0.905 0.944 1.139 0.488 0.241 1.024 0.282 1.608 0.123v0c0.427-0.116 0.841-0.264 1.243-0.443v0l1.308 4.813c-1.344 1.098-2.905 1.889-4.683 2.372z" fill="#ffffff" data-fill-palette-color="primary"></path><path d="M142.266 21.931v0c-2.224-0.005-4.157-0.424-5.802-1.257v0c-1.644-0.813-2.906-1.982-3.786-3.507-0.874-1.518-1.309-3.298-1.304-5.338v0c0.004-2.006 0.44-3.753 1.307-5.24v0c0.853-1.467 2.056-2.6 3.608-3.399 1.559-0.799 3.386-1.196 5.481-1.192v0c1.925 0.004 3.624 0.386 5.097 1.144v0c1.467 0.772 2.604 1.859 3.41 3.262 0.806 1.403 1.207 3.036 1.203 4.899v0c-0.001 0.646-0.098 1.258-0.29 1.835v0l-11.19-0.025c-0.003 1.122 0.421 2.021 1.269 2.696 0.849 0.682 1.871 1.024 3.069 1.027v0c0.911 0.002 1.911-0.156 3-0.473 1.089-0.31 2.185-0.801 3.287-1.472v0l0.306 0.113-0.011 4.825c-1.232 0.704-2.498 1.232-3.798 1.583-1.3 0.351-2.919 0.524-4.856 0.519zM140.009 9.431v0l-0.001 0.52 4.6 0.01 0.001-0.377c0.002-0.85-0.19-1.585-0.577-2.205-0.386-0.613-0.964-0.92-1.732-0.922v0c-0.632-0.001-1.17 0.31-1.614 0.935-0.45 0.625-0.676 1.304-0.677 2.039z" fill="#ffffff" data-fill-palette-color="primary"></path><path d="M183.809 30.774l0.484-8.047-5.225 6.309-7.48-2.741 0.695-14.315-2.241-0.821 1.91-5.21 11.953 4.381-1.91 5.21-1.609-0.59-0.722 6.83 7.755-10.161 4.492 1.646-0.627 13.003 4.052-5.837-2.002-0.734 1.91-5.21 9.29 3.405-1.91 5.21-2.279-0.835-8.529 11.442z" fill="#ffffff" data-fill-palette-color="primary"></path><path d="M228.032 31.431v0c-1.173-0.928-1.924-1.969-2.251-3.122-0.318-1.154-0.064-2.253 0.763-3.298v0c0.823-1.04 1.824-1.527 3.003-1.461 1.189 0.065 2.378 0.568 3.567 1.509v0c1.194 0.945 1.956 1.977 2.285 3.096 0.333 1.113 0.079 2.201-0.76 3.262v0c-0.827 1.045-1.844 1.541-3.051 1.488-1.197-0.054-2.382-0.546-3.556-1.474zM221.643 46.408l1.815 1.437-3.355 4.239-10.374-8.211 3.355-4.239 1.816 1.437 5.134-6.487-1.816-1.437 2.741-3.463 9.261 5.886z" fill="#ffffff" data-fill-palette-color="primary"></path><path d="M236.084 71.138v0c-1.472-1.965-2.257-4.091-2.356-6.379v0l-1.645 0.492-1.999-2.67 5.674-4.249 2.397 3.2c-0.636 0.671-1.031 1.499-1.187 2.482-0.161 0.987 0.031 1.846 0.578 2.575v0c0.208 0.278 0.466 0.463 0.772 0.556 0.313 0.089 0.646 0 1-0.265v0c0.354-0.265 0.524-0.707 0.511-1.325v0c-0.016-0.634-0.134-1.501-0.355-2.602v0c-0.257-1.353-0.417-2.491-0.479-3.413v0c-0.07-0.933 0.051-1.878 0.363-2.834 0.311-0.946 0.926-1.764 1.846-2.453v0c0.947-0.709 2.004-1.017 3.171-0.922v0c1.16 0.108 2.296 0.536 3.408 1.284 1.116 0.753 2.123 1.728 3.02 2.926v0c1.17 1.562 1.843 3.323 2.018 5.281v0l1.208-0.344 1.785 2.384-4.589 3.436-2.079-2.776c0.447-0.708 0.68-1.418 0.7-2.129 0.015-0.717-0.203-1.377-0.656-1.981v0c-0.53-0.708-1.021-0.892-1.472-0.554v0c-0.297 0.239-0.417 0.623-0.362 1.15v0c0.057 0.518 0.209 1.322 0.455 2.412v0c0.167 0.665 0.306 1.288 0.417 1.867 0.102 0.578 0.184 1.107 0.246 1.587v0c0.104 0.967-0.015 1.965-0.357 2.995-0.338 1.035-1.038 1.95-2.1 2.744v0c-1.132 0.848-2.3 1.268-3.503 1.261v0c-1.213-0.009-2.374-0.351-3.482-1.025-1.117-0.675-2.1-1.579-2.948-2.711z" fill="#ffffff" data-fill-palette-color="primary"></path><path d="M251.464 100.75v0c-0.776-2.084-1.063-4.042-0.861-5.873v0c0.184-1.825 0.835-3.417 1.954-4.778 1.115-1.351 2.628-2.383 4.54-3.095v0c1.88-0.7 3.668-0.906 5.365-0.617v0c1.673 0.284 3.156 1.012 4.45 2.185 1.296 1.179 2.309 2.75 3.041 4.713v0c0.672 1.803 0.912 3.528 0.719 5.174v0c-0.207 1.645-0.826 3.091-1.856 4.339-1.03 1.247-2.418 2.196-4.164 2.846v0c-0.605 0.226-1.212 0.35-1.821 0.374v0l-3.906-10.486c-1.051 0.392-1.744 1.103-2.079 2.135-0.34 1.034-0.302 2.112 0.116 3.233v0c0.318 0.854 0.817 1.735 1.497 2.643 0.673 0.91 1.517 1.764 2.532 2.562v0l0.002 0.326-4.521 1.684c-1.092-0.906-2.031-1.907-2.816-3-0.785-1.094-1.516-2.549-2.192-4.365zM262.375 94.246v0l-0.487 0.182 1.606 4.311 0.354-0.132c0.797-0.297 1.417-0.735 1.861-1.314 0.438-0.577 0.523-1.225 0.255-1.945v0c-0.221-0.593-0.702-0.987-1.442-1.183-0.743-0.202-1.459-0.175-2.147 0.081z" fill="#ffffff" data-fill-palette-color="primary"></path><path d="M14.789 197.806l6.382-5.236-8.373 0.463-3.14-7.532 11.248-9.442-0.939-2.251 5.244-2.186 5.018 12.032-5.244 2.187-0.672-1.61-5.639 4.208 13.035-1.236 1.884 4.519-10.215 8.581 7.213-1.018-0.84-2.015 5.244-2.187 3.898 9.349-5.244 2.187-0.954-2.288-14.542 1.544z" fill="#ffffff" data-fill-palette-color="primary"></path><path d="M36.626 233.488v0c-0.852-0.916-1.445-1.912-1.777-2.986v0c-0.356-1.081-0.411-2.154-0.166-3.218 0.25-1.069 0.816-2.013 1.697-2.834v0c0.951-0.885 2.003-1.372 3.156-1.46v0c1.143-0.07 2.275 0.173 3.395 0.729 1.12 0.555 2.144 1.33 3.07 2.326v0c1.093 1.175 1.973 2.469 2.64 3.883v0l0.605-0.562c0.717-0.667 0.982-1.48 0.794-2.44-0.192-0.955-0.767-1.947-1.726-2.978v0c-0.412-0.443-0.926-0.89-1.54-1.34-0.619-0.446-1.264-0.839-1.935-1.181-0.676-0.347-1.306-0.605-1.892-0.775v0l-0.211-0.542 3.92-3.649c1.398 0.733 2.707 1.586 3.928 2.559 1.216 0.977 2.28 1.956 3.193 2.937v0c5.078 5.456 6.081 9.613 3.01 12.472v0l-6.041 5.622 1.181 1.269-4.055 3.774-6.421-6.9 1.648-2.662c-1.113 0.321-2.271 0.275-3.474-0.139-1.198-0.409-2.198-1.044-2.999-1.905zM42.424 232.816v0c0.278 0.299 0.61 0.556 0.997 0.772 0.387 0.216 0.688 0.335 0.904 0.357v0l2.262-2.105c-0.105-0.153-0.252-0.42-0.44-0.803v0c-0.203-0.378-0.409-0.679-0.617-0.903v0c-0.445-0.478-0.946-0.722-1.504-0.732-0.558-0.001-1.084 0.228-1.576 0.687v0c-0.368 0.343-0.567 0.774-0.595 1.292-0.028 0.519 0.161 0.997 0.569 1.435z" fill="#ffffff" data-fill-palette-color="primary"></path><path d="M72.351 262.434v0c-2.173-1.269-3.761-2.96-4.763-5.073v0l-1.362 1.118-2.951-1.723 3.662-6.271 3.541 2.067c-0.335 0.883-0.379 1.822-0.133 2.817 0.24 0.991 0.763 1.721 1.568 2.191v0c0.311 0.182 0.628 0.253 0.951 0.212 0.328-0.037 0.606-0.249 0.832-0.636v0c0.23-0.393 0.217-0.877-0.038-1.452v0c-0.266-0.596-0.725-1.368-1.377-2.315v0c-0.777-1.178-1.378-2.191-1.805-3.039v0c-0.438-0.854-0.702-1.792-0.791-2.812-0.08-1.023 0.177-2.043 0.77-3.059v0c0.61-1.045 1.485-1.755 2.625-2.129v0c1.133-0.362 2.373-0.41 3.721-0.142 1.351 0.261 2.691 0.78 4.018 1.555v0c1.727 1.008 3.064 2.399 4.013 4.173v0l0.998-0.799 2.643 1.543-2.958 5.065-3.065-1.79c0.131-0.845 0.065-1.608-0.199-2.289-0.269-0.685-0.739-1.223-1.409-1.614v0c-0.781-0.456-1.317-0.434-1.608 0.065v0c-0.187 0.347-0.151 0.758 0.107 1.232v0c0.268 0.471 0.735 1.169 1.4 2.093v0c0.427 0.564 0.803 1.099 1.13 1.605 0.33 0.5 0.619 0.964 0.865 1.391v0c0.492 0.87 0.78 1.861 0.863 2.973 0.093 1.109-0.204 2.251-0.89 3.425v0c-0.73 1.251-1.665 2.111-2.805 2.579v0c-1.147 0.48-2.379 0.623-3.698 0.427-1.319-0.195-2.604-0.658-3.855-1.388z" fill="#ffffff" data-fill-palette-color="primary"></path><path d="M106.754 276.176v0c-4.556-1.23-6.193-4.219-4.911-8.966v0l1.894-7.011-2.837-0.766 1.405-5.2 2.836 0.766 1.098-4.067 9.022 0.397-1.612 5.968 3.408 0.92-1.405 5.2-3.407-0.921-1.726 6.392c-0.144 0.532-0.063 1.029 0.242 1.491 0.31 0.471 0.766 0.788 1.37 0.952v0c0.433 0.117 0.873 0.197 1.319 0.24v0l-1.332 4.933c-1.75 0.274-3.538 0.164-5.364-0.328z" fill="#ffffff" data-fill-palette-color="primary"></path><path d="M142.367 280v0c-2.278 0.005-4.258-0.412-5.94-1.251v0c-1.695-0.833-2.997-2.027-3.905-3.582-0.901-1.555-1.354-3.373-1.358-5.454v0c-0.005-2.061 0.43-3.853 1.303-5.379v0c0.867-1.512 2.099-2.677 3.695-3.497 1.589-0.826 3.459-1.242 5.608-1.247v0c1.972-0.004 3.714 0.376 5.225 1.141v0c1.511 0.785 2.684 1.895 3.517 3.327 0.826 1.433 1.241 3.105 1.245 5.016v0c0.001 0.66-0.096 1.285-0.291 1.878v0l-11.456 0.026c0.003 1.156 0.44 2.077 1.312 2.761 0.872 0.692 1.92 1.036 3.144 1.034v0c0.932-0.002 1.958-0.164 3.08-0.487 1.115-0.329 2.235-0.838 3.363-1.527v0l0.306 0.111 0.011 4.947c-1.263 0.724-2.557 1.267-3.883 1.631-1.332 0.363-2.991 0.547-4.976 0.552zM140.002 267.204v0l0.001 0.54 4.713-0.01-0.001-0.388c-0.002-0.87-0.204-1.621-0.607-2.253-0.403-0.632-0.995-0.946-1.777-0.945v0c-0.653 0.001-1.203 0.326-1.65 0.973-0.454 0.64-0.68 1.334-0.679 2.083z" fill="#ffffff" data-fill-palette-color="primary"></path><path d="M190.64 269.223l-4.956-6.602 0.101 8.384-7.66 2.813-8.948-11.645-2.289 0.84-1.958-5.333 12.238-4.494 1.958 5.334-1.638 0.601 3.961 5.816-0.671-13.076 4.596-1.688 8.131 10.576-0.705-7.25-2.049 0.753-1.959-5.334 9.509-3.491 1.958 5.334-2.327 0.854 0.914 14.595z" fill="#ffffff" data-fill-palette-color="primary"></path><path d="M213.627 232.095v0c-1.199 0.95-2.412 1.451-3.638 1.502-1.226 0.051-2.263-0.459-3.112-1.53v0c-0.844-1.066-1.095-2.182-0.751-3.348 0.348-1.16 1.132-2.224 2.353-3.19v0c1.221-0.967 2.426-1.483 3.614-1.549 1.194-0.07 2.22 0.437 3.077 1.519v0c0.849 1.072 1.105 2.2 0.769 3.386-0.336 1.186-1.107 2.256-2.312 3.21zM227.067 241.984l1.863-1.476 3.439 4.343-10.627 8.416-3.439-4.342 1.863-1.476-5.263-6.645-1.863 1.476-2.812-3.551 8.049-7.844z" fill="#ffffff" data-fill-palette-color="primary"></path><path d="M252.093 222.858v0c-1.511 2.012-3.374 3.394-5.589 4.145v0l0.954 1.482-2.053 2.732-5.807-4.362 2.463-3.279c0.839 0.434 1.766 0.587 2.782 0.457 1.012-0.124 1.798-0.559 2.358-1.303v0c0.216-0.288 0.323-0.595 0.321-0.92 0.002-0.331-0.177-0.631-0.536-0.9v0c-0.364-0.274-0.846-0.317-1.447-0.13v0c-0.623 0.195-1.443 0.562-2.459 1.1v0c-1.26 0.636-2.335 1.116-3.226 1.442v0c-0.899 0.337-1.861 0.49-2.885 0.461-1.025-0.039-2.009-0.412-2.95-1.118v0c-0.968-0.727-1.572-1.678-1.811-2.854v0c-0.229-1.167-0.133-2.405 0.288-3.712 0.416-1.312 1.085-2.583 2.008-3.812v0c1.201-1.599 2.737-2.766 4.61-3.504v0l-0.679-1.083 1.838-2.447 4.69 3.523-2.132 2.838c-0.824-0.228-1.59-0.25-2.297-0.067-0.711 0.189-1.3 0.593-1.766 1.212v0c-0.543 0.723-0.584 1.258-0.122 1.606v0c0.324 0.226 0.736 0.238 1.237 0.035v0c0.499-0.212 1.246-0.595 2.241-1.149v0c0.61-0.359 1.184-0.671 1.724-0.937 0.535-0.27 1.029-0.503 1.482-0.698v0c0.921-0.388 1.939-0.56 3.052-0.514 1.113 0.036 2.212 0.463 3.3 1.279v0c1.158 0.87 1.904 1.898 2.238 3.084v0c0.345 1.194 0.344 2.435-0.003 3.724-0.346 1.288-0.955 2.511-1.824 3.669z" fill="#ffffff" data-fill-palette-color="primary"></path><path d="M270.199 188.376v0c-0.801 2.133-1.891 3.837-3.271 5.113v0c-1.378 1.291-2.955 2.087-4.731 2.387-1.773 0.293-3.634 0.074-5.583-0.658v0c-1.929-0.724-3.452-1.765-4.57-3.121v0c-1.107-1.346-1.762-2.91-1.965-4.693-0.211-1.779 0.061-3.674 0.817-5.686v0c0.693-1.846 1.665-3.341 2.914-4.484v0c1.269-1.136 2.721-1.84 4.357-2.113 1.633-0.266 3.343-0.063 5.132 0.608v0c0.618 0.232 1.169 0.544 1.653 0.937v0l-4.026 10.724c1.082 0.406 2.098 0.323 3.047-0.251 0.955-0.571 1.648-1.43 2.078-2.575v0c0.327-0.872 0.539-1.89 0.634-3.053 0.086-1.159 0.006-2.387-0.24-3.685v0l0.213-0.248 4.631 1.739c0.23 1.438 0.281 2.84 0.153 4.209-0.131 1.375-0.545 2.991-1.244 4.85zM257.393 186.064v0l0.506 0.19 1.656-4.412-0.363-0.137c-0.815-0.306-1.589-0.382-2.322-0.228-0.733 0.153-1.237 0.596-1.512 1.328v0c-0.229 0.611-0.121 1.24 0.327 1.887 0.438 0.651 1.008 1.108 1.708 1.372z" fill="#ffffff" data-fill-palette-color="primary"></path><path d="M0.291 140.917c0-6.174 5.005-11.179 11.18-11.179 6.174 0 11.179 5.005 11.179 11.179 0 6.174-5.005 11.179-11.179 11.18-6.174 0-11.179-5.005-11.18-11.18z" fill="#ffffff" data-fill-palette-color="primary"></path><path d="M257.35 140.917c0-6.174 5.005-11.179 11.179-11.179 6.174 0 11.179 5.005 11.18 11.179 0 6.174-5.005 11.179-11.18 11.18-6.174 0-11.179-5.005-11.179-11.18z" fill="#ffffff" data-fill-palette-color="primary"></path></g><g id="text-1"></g></svg></g></svg></g></svg></g></svg></g><defs></defs></svg><rect width="280" height="280" fill="none" stroke="none" visibility="hidden"></rect></g></svg></g></svg>